# xmcd
#
# Track frame offsets: 
#        150
#        15682
#        35989
#        53165
#        73389
#        92099
#        111872
#        134881
#        146547
#        167863
#        187177
#        210263
#        228698
#        245192
#        260306
#        284282
#        306781
#        322391
#
# Disc length: 4513 seconds
#
# Revision: 1
# Processed by: cddbd v1.5.2PL0 Copyright (c) Steve Scherf et al.
# Submitted via: ExactAudioCopyFreeDBPlugin 1.0
#
DISCID=28119f12
DTITLE=Various Artist - Funk Lounge Emotion
DYEAR=2010
DGENRE=R&B
TTITLE0=Driss Farrio - Goin' back to my roots
TTITLE1=Brenda Wilson - Superstition
TTITLE2=Miss Kat - I 'm every woman
TTITLE3=Hilda Lesskova - You and i
TTITLE4=Lana Davis - Do i do
TTITLE5=Sir D feat.Terry Dexter - Celebration
TTITLE6=Liza Everson - Don't look any further
TTITLE7=Mondo Wells - I got you ( I feel  good )
TTITLE8=Mary Nelson - Let's groove
TTITLE9=BB Valentine - Somebody else's guy
TTITLE10=Albane Alcalay - Give me the night
TTITLE11=Stina Förster - Ai no corrida
TTITLE12=Miley Schmit - Get down saturday night
TTITLE13=Annie D'iorlov - Down on the street
TTITLE14=Virgin-e feat. Chris Long - Let the music play
TTITLE15=The Springstill Band - Why did you do it
TTITLE16=Pure Gospel - And the beat goes on
TTITLE17=Majiik Seek - Just a funky tonight
EXTD=YEAR: 2010
EXTT0=
EXTT1=
EXTT2=
EXTT3=
EXTT4=
EXTT5=
EXTT6=
EXTT7=
EXTT8=
EXTT9=
EXTT10=
EXTT11=
EXTT12=
EXTT13=
EXTT14=
EXTT15=
EXTT16=
EXTT17=
PLAYORDER=
